<?xml version="1.0" encoding="UTF-8" standalone="no"?>
<!-- Created with Inkscape (http://www.inkscape.org/) -->

<svg
   width="1920"
   height="1080"
   viewBox="0 0 1920 1080"
   version="1.1"
   id="svg1"
   xmlns="http://www.w3.org/2000/svg"
   xmlns:svg="http://www.w3.org/2000/svg">
  <defs
     id="defs1" />
  <g
     id="layer1">
    <path
       style="fill:#000000;stroke-width:1.33566"
       d="m 1534.4125,739.99158 c -41.5205,-41.50548 -76.1437,-75.4645 -76.9404,-75.4645 -0.7967,0 -1.4485,-0.68172 -1.4485,-1.51503 0,-0.83332 -13.6737,-15.15729 -30.3862,-31.83093 -27.0726,-27.01015 -30.8231,-30.28637 -34.3931,-30.04515 -2.2038,0.14905 -45.6293,0.34834 -96.5011,0.44317 l -92.4941,0.17216 v 30.72007 30.72005 h -4.0134 -4.0135 l 0.3404,-132.44709 0.3404,-132.44712 3.6334,-0.15899 c 3.1146,-0.13632 21.6068,17.81528 129.5559,125.76883 69.2573,69.26027 126.3745,125.92783 126.9269,125.92783 0.5524,0 1.0044,-56.79872 1.0044,-126.21939 V 397.39611 h 5.3426 5.3426 V 513.932 l 2e-4,116.53588 162.9497,-0.29812 162.9499,-0.29798 v 17.32758 17.32772 h -161.9437 -161.9438 l 75.4557,75.4645 c 73.8733,73.882 75.3537,75.46448 70.5915,75.46448 -4.6468,0 -8.2354,-3.36998 -80.3558,-75.46448 z M 1283.8451,489.89021 c -43.6131,-43.15835 -79.8139,-78.67007 -80.4463,-78.91494 -0.6346,-0.24575 -1.1497,34.91295 -1.1497,78.46973 v 78.91493 h 80.4464 80.4464 z M 566.31495,734.90434 c -13.27157,-4.52387 -22.11812,-11.97068 -33.166,-27.91853 -5.93504,-8.56729 -8.88196,-13.91899 -7.85335,-14.26185 0.90554,-0.30186 1.82828,0 2.05054,0.66355 0.22225,0.66676 4.28337,6.69711 9.02471,13.40062 11.48559,16.2393 21.9563,23.95511 36.78485,27.10686 5.45011,1.15841 52.84983,1.45719 183.65253,1.15761 l 176.30644,-0.40364 -16.69568,-8.5124 C 907.23636,721.4547 884.39667,709.67195 865.6641,699.95252 846.93155,690.23309 821.08662,676.85745 808.23095,670.22885 781.94524,656.67543 721.38604,625.42391 646.04289,586.53178 618.1794,572.14865 595.232,560.53059 595.04865,560.71397 c -0.46503,0.46508 -1.71835,58.79487 -1.79487,83.53306 l -0.0633,20.45743 -3.67306,-0.42261 -3.67304,-0.4226 -0.66783,-54.51328 -0.66783,-54.51328 -16.02785,-8.26543 C 554.48471,539.3495 552.453,537.87895 552.453,534.96562 v -3.3362 l 16.36178,-0.37505 16.36177,-0.37499 v -66.78355 c 0,-61.88092 0.16834,-66.84816 2.29319,-67.66354 3.35837,-1.28872 67.9375,1.93874 85.86002,4.29102 33.32478,4.37376 58.72277,11.14838 76.80016,20.48552 10.36042,5.35126 22.91596,16.95483 26.39807,24.39655 3.6507,7.80205 4.29843,18.34497 1.68035,27.35088 -1.95348,6.71971 -3.69813,9.25629 -11.86302,17.2479 -21.40299,20.94872 -60.93542,33.09861 -130.2671,40.0362 -11.30568,1.13128 -25.27996,2.05689 -31.05393,2.05689 h -10.49812 v 9.86862 9.86849 l 10.35133,5.34168 c 5.69322,2.93791 39.80251,20.49869 75.79841,39.02396 35.9959,18.52526 73.26066,37.74801 82.8106,42.71732 23.28543,12.11639 46.90635,24.0741 47.55585,24.07437 0.29025,0 0.36488,-59.80394 0.16585,-132.89771 l -0.36187,-132.89787 h 4.65003 4.65001 l 0.40175,90.49062 0.40174,90.49061 3.65502,10.38365 c 7.93713,22.54866 18.30374,38.10437 32.5307,48.81418 13.62334,10.25543 21.04871,12.82322 37.24509,12.88039 14.70963,0.0521 20.43728,-1.92187 27.66296,-9.53298 7.48738,-7.88677 7.73163,-10.19397 7.73479,-73.06445 9e-4,-31.6796 0.39835,-72.47504 0.8817,-90.65664 l 0.8788,-33.05746 h 18.51939 18.51939 l -0.368,95.83324 -0.36801,95.83323 -3.61965,6.86246 c -7.85677,14.89536 -20.3981,21.2651 -41.12478,20.88684 -42.40674,-0.77361 -79.33048,-22.78815 -97.95105,-58.40004 l -4.22655,-8.08325 -0.35702,33.80529 c -0.3289,31.14414 -0.53921,33.78699 -2.67132,33.57155 -1.27284,-0.12822 -2.91533,-0.15306 -3.64994,-0.0547 -0.73461,0.0988 10.68524,6.37375 25.37744,13.94451 14.69221,7.57062 45.50243,23.48683 68.46716,35.36908 l 41.75404,21.60461 h 201.66907 c 133.5556,0 201.669,0.45105 201.669,1.33566 0,0.88741 -130.5373,1.32403 -389.00945,1.30119 L 575.15917,737.919 Z m 18.44101,-200.80169 c -0.3183,-0.31828 -5.91353,-0.4039 -12.43385,-0.19033 l -11.85514,0.38841 12.0209,6.20065 12.02089,6.20064 0.41296,-6.01031 c 0.22712,-3.30562 0.15253,-6.27064 -0.16576,-6.58906 z m 51.84334,-6.53053 c 59.13809,-5.95044 95.37352,-19.33095 104.30697,-38.51702 3.91649,-8.4113 4.02134,-13.01395 0.46389,-20.36267 -10.96876,-22.65842 -51.70132,-34.87614 -133.15353,-39.93932 l -13.69046,-0.85103 v 51.64967 51.6496 l 11.68698,-0.87385 c 6.42784,-0.48062 20.1016,-1.72055 30.38615,-2.75538 z m 436.7544,135.83716 c -0.3647,-0.36464 -0.6631,-52.57967 -0.6631,-116.03316 0,-91.52125 -0.3451,-115.32527 -1.6696,-115.15327 -0.9182,0.11927 -18.9496,0.14558 -40.0696,0.0585 l -38.40004,-0.15821 v -16.69569 -16.69568 h 90.82454 90.8244 v 16.67837 16.67838 l -46.414,0.35122 -46.4139,0.35122 -0.6678,115.53414 -0.6679,115.53415 -3.01,0.10685 c -1.6554,0.0588 -3.3083,-0.1918 -3.673,-0.55657 z m -742.5108,-2.71353 c -0.39431,-0.63804 -0.68647,-53.07919 -0.64926,-116.53588 L 330.26134,428.784 212.6263,428.44283 94.991287,428.10166 v -15.37473 -15.37474 l 193.336023,0.35588 193.33605,0.35587 7.55539,3.05457 c 12.46606,5.03989 21.12823,16.67946 21.15373,28.42481 0.0155,7.11672 -3.98286,17.02045 -8.36235,20.71332 -10.64569,8.97663 -18.16827,9.82665 -88.16073,9.96197 -36.12706,0.0699 -58.16783,0.59281 -57.68823,1.3688 0.42686,0.69068 3.72288,1.25579 7.32448,1.25579 8.14026,0 45.06153,4.63864 59.4089,7.46389 40.57,7.98897 73.70215,20.08943 95.58999,34.91119 11.34594,7.68311 24.54729,20.94713 29.60973,29.75028 11.29979,19.64935 11.93307,47.176 1.49506,64.98709 -20.02923,34.17727 -69.48642,53.36182 -156.07919,60.54336 -19.78869,1.64113 -61.69323,1.77268 -62.66721,0.19674 z m 59.99591,-5.54136 c 72.55509,-3.94592 120.1176,-18.6229 144.74926,-44.66724 17.74381,-18.76141 21.38677,-47.24291 9.04807,-70.74015 -19.75995,-37.62981 -82.04423,-63.32044 -175.04841,-72.20288 -11.68811,-1.11629 -23.25822,-2.02961 -25.71136,-2.02961 h -4.46027 v 94.75082 94.75095 l 5.0087,0.52384 c 9.70794,1.0155 22.62184,0.90825 46.41401,-0.38573 z m 78.64032,-200.17553 c 7.58383,-2.49659 11.52064,-6.98666 11.49593,-13.11152 -0.0262,-6.486 -0.92056,-7.78337 -7.37246,-10.69414 -4.80826,-2.16924 -11.22889,-2.42647 -69.74116,-2.79392 l -64.44534,-0.4047 v 14.83571 14.8357 l 62.44186,-0.48105 c 45.92585,-0.35381 63.81181,-0.93203 67.62117,-2.18608 z m 1049.71357,88.9052 c 0.3735,-0.97329 4.9342,-8.2259 10.135,-16.11692 5.2007,-7.89096 10.3688,-17.42142 11.4848,-21.17881 2.6213,-8.82705 2.5885,-22.67615 -0.075,-31.64513 -2.294,-7.72442 -3.5676,-9.66204 -76.001,-115.61325 -25.6129,-37.46512 -49.8421,-72.92675 -53.8427,-78.80363 -10.3716,-15.23613 -16.8851,-21.48775 -28.2619,-27.12574 l -9.9482,-4.92998 H 972.58578 572.48787 l -7.68281,3.10223 c -14.35662,5.79705 -18.70506,10.55353 -48.35072,52.88785 -23.97468,34.23612 -30.11621,42.14763 -30.11621,38.79567 0,-0.39247 8.52194,-12.86415 18.93766,-27.71484 10.41572,-14.85069 22.22459,-31.80962 26.24193,-37.6865 12.53726,-18.34044 21.07325,-25.41761 36.41685,-30.19307 7.90252,-2.45954 19.2219,-2.53048 403.79067,-2.53048 359.85026,0 396.31686,0.19466 402.91486,2.15082 17.9163,5.31173 24.9869,11.69961 44.4243,40.13428 7.955,11.63717 24.5063,35.8841 36.7806,53.88205 12.2743,17.99795 36.0404,52.79521 52.8136,77.32727 16.7732,24.53204 31.7431,47.37173 33.2665,50.75489 4.2311,9.39608 4.7491,28.99417 1.0451,39.54252 -2.8063,7.99167 -21.0118,36.73051 -23.268,36.73051 -0.6537,0 -0.883,-0.79631 -0.5095,-1.76974 z M 700.57717,323.40083 c -4.09794,-4.09793 -4.54123,-5.28137 -4.54123,-12.12363 0,-6.55506 0.51568,-8.0981 3.806,-11.3884 4.91737,-4.91739 11.85963,-6.28471 17.38964,-3.42504 4.58731,2.37219 9.13624,8.31054 7.519,9.8156 -0.56738,0.52802 -1.33863,0.0927 -1.71388,-0.96754 -2.57958,-7.28783 -12.85813,-10.41677 -19.63417,-5.97693 -6.83571,4.47891 -7.60803,17.39121 -1.38966,23.23307 4.82829,4.53594 13.51061,4.27577 17.64323,-0.52869 4.63963,-5.39388 4.0397,-7.45376 -2.17085,-7.45376 -2.89509,0 -5.63526,-0.60104 -6.08928,-1.33565 -0.5125,-0.82926 1.98962,-1.33566 6.59945,-1.33566 7.10564,0 7.42493,0.14934 7.42493,3.47271 0,2.16847 -1.70553,5.17822 -4.54123,8.01392 -3.72287,3.72287 -5.55213,4.54123 -10.15098,4.54123 -4.59885,0 -6.4281,-0.81836 -10.15097,-4.54123 z m 96.92369,-11.1129 c 3.56634,-8.60978 7.06701,-15.84838 7.77925,-16.0858 1.55903,-0.51967 14.02649,28.65934 13.18701,30.86307 -0.32363,0.84959 -1.56514,-0.70923 -2.75891,-3.46402 -2.1646,-4.99512 -2.19237,-5.0087 -10.23466,-5.0087 -7.95368,0 -8.09091,0.064 -10.0174,4.67479 -1.07429,2.57113 -2.51267,4.67479 -3.1964,4.67479 -0.68373,0 1.67477,-7.04436 5.24111,-15.65413 z m 14.51444,2.59414 c -0.24486,-0.5715 -1.61577,-4.17777 -3.04646,-8.01393 -1.43068,-3.83616 -2.93329,-6.97257 -3.33913,-6.96982 -0.40584,0.003 -1.76884,2.55719 -3.02887,5.67653 -4.51195,11.16975 -4.74492,10.34632 2.92719,10.34632 3.81287,0 6.73214,-0.4676 6.48727,-1.0391 z m 73.68363,-2.96787 c 0,-9.79479 0.51942,-16.02785 1.33565,-16.02785 0.80949,0 1.33566,5.78783 1.33566,14.6922 v 14.69221 h 8.01393 c 4.45218,0 8.01393,0.59361 8.01393,1.33565 0,0.76323 -4.00697,1.33565 -9.34959,1.33565 h -9.34958 z m 86.81756,0 v -16.02785 l 9.6835,0.25735 9.68348,0.25735 -8.34782,0.47421 -8.34785,0.4742 v 5.94672 5.94671 h 7.34611 c 4.04035,0 7.34606,0.60105 7.34606,1.33566 0,0.73461 -3.30571,1.33565 -7.34606,1.33565 h -7.34611 v 6.67828 6.67828 h 8.01394 c 4.45216,0 8.01393,0.59361 8.01393,1.33565 0,0.76323 -4.007,1.33565 -9.34959,1.33565 h -9.34959 z m 77.46801,0 v -16.02785 h 8.606 c 7.3791,0 8.9024,0.4232 10.6852,2.9685 2.85,4.06881 2.6066,8.02178 -0.7571,12.29806 l -2.8365,3.60592 3.5877,6.59161 c 1.9731,3.6254 3.0445,6.59162 2.3808,6.59162 -0.6638,0 -2.8424,-3.00522 -4.8415,-6.67827 -1.9991,-3.67305 -4.0481,-6.74546 -4.5532,-6.82758 -0.5051,-0.0822 -2.8718,-0.37534 -5.2593,-0.65162 l -4.3408,-0.50232 v 7.3299 c 0,4.03144 -0.6011,7.32989 -1.3357,7.32989 -0.8162,0 -1.3356,-6.23306 -1.3356,-16.02786 z m 16.6003,-2.09888 c 1.1544,-1.15438 2.0989,-3.51564 2.0989,-5.24722 0,-4.8434 -3.4454,-7.3461 -10.1128,-7.3461 h -5.9151 v 7.3461 7.3461 h 5.9151 c 3.5964,0 6.7377,-0.82273 8.0139,-2.09888 z m 79.5668,2.09888 c 0,-9.79479 0.5194,-16.02785 1.3357,-16.02785 0.8162,0 1.3356,6.23306 1.3356,16.02785 0,9.7948 -0.5194,16.02786 -1.3356,16.02786 -0.8163,0 -1.3357,-6.23306 -1.3357,-16.02786 z m 80.1393,0 v -16.02785 l 9.6835,0.23053 9.6835,0.23053 -8.6817,0.77121 -8.6818,0.77121 v 6.01044 6.01045 l 8.0139,0.73877 8.014,0.73875 -8.014,0.5969 -8.0139,0.59689 -0.1948,6.34436 -0.1949,6.34437 h 8.5427 c 4.8047,0 8.5427,0.58443 8.5427,1.33565 0,0.76323 -4.007,1.33565 -9.3496,1.33565 h -9.3496 z m -576.33456,3.52733 c -2.0846,-3.1815 -1.53122,-7.2874 1.23774,-9.18341 2.96495,-2.03022 7.42973,-0.94926 9.56983,2.31695 2.02674,3.0932 2.02674,3.58507 0,6.67827 -2.83236,4.32273 -8.03912,4.41341 -10.80757,0.18819 z m 628.97016,-0.18819 c -2.0268,-3.0932 -2.0268,-3.58507 0,-6.67827 2.5155,-3.8393 7.5327,-4.42017 10.7126,-1.24025 2.6409,2.64089 2.6454,4.54038 0.02,8.28915 -2.8142,4.01792 -7.9735,3.83974 -10.7323,-0.37063 z"
       id="path1" />
  </g>
</svg>
